PathFileType	4	(x/y/z)	S09_PSF_T14
DataRate	CameraRate	NumFrames	NumMarkers	Units	OrigDataRate	OrigDataStartFrame	OrigNumFrames
240	240	9	51	mm	240	167	444
Frame#	Time	Sternum			R.Acromium			L.Acromium			Top.Head			R.ASIS			L.ASIS			R.PSIS			L.PSIS			R.Great.Tro			L.Great.Tro			R.Iliac.Crest			L.Iliac.Crest			V.Sacral			R.Thigh.Upper.Post			R.Thigh.Lower.Ant			R.Thigh.Lower.Post			R.Thigh.Upper.Ant			R.Knee.Lat			R.Knee.Med			R.Shank.Upper.Post			R.Shank.Lower.Ant			R.Shank.Lower.Post			R.Shank.Upper.Ant			R.Ankle.Lat			R.Ankle.Med			R.Heel.Upper			R.Heel.Med			R.Heel.Lat			R.Toe.Lat			R.Toe.Med			R.Toe.Tip			L.Thigh.Upper.Post			L.Thigh.Lower.Ant			L.Thigh.Lower.Post			L.Thigh.Upper.Ant			L.Knee.Lat			L.Knee.Med			L.Shank.Upper.Post			L.Shank.Lower.Ant			L.Shank.Lower.Post			L.Shank.Upper.Ant			L.Ankle.Lat			L.Ankle.Med			L.Heel.Upper			L.Heel.Med			L.Heel.Lat			L.Toe.Lat			L.Toe.Med			L.Toe.Tip			Cervical.Spine			Back			
		X1	Y1	Z1	X2	Y2	Z2	X3	Y3	Z3	X4	Y4	Z4	X5	Y5	Z5	X6	Y6	Z6	X7	Y7	Z7	X8	Y8	Z8	X9	Y9	Z9	X10	Y10	Z10	X11	Y11	Z11	X12	Y12	Z12	X13	Y13	Z13	X14	Y14	Z14	X15	Y15	Z15	X16	Y16	Z16	X17	Y17	Z17	X18	Y18	Z18	X19	Y19	Z19	X20	Y20	Z20	X21	Y21	Z21	X22	Y22	Z22	X23	Y23	Z23	X24	Y24	Z24	X25	Y25	Z25	X26	Y26	Z26	X27	Y27	Z27	X28	Y28	Z28	X29	Y29	Z29	X30	Y30	Z30	X31	Y31	Z31	X32	Y32	Z32	X33	Y33	Z33	X34	Y34	Z34	X35	Y35	Z35	X36	Y36	Z36	X37	Y37	Z37	X38	Y38	Z38	X39	Y39	Z39	X40	Y40	Z40	X41	Y41	Z41	X42	Y42	Z42	X43	Y43	Z43	X44	Y44	Z44	X45	Y45	Z45	X46	Y46	Z46	X47	Y47	Z47	X48	Y48	Z48	X49	Y49	Z49	X50	Y50	Z50	X51	Y51	Z51	

167	0.69167	-652.75	1170.8	342.38	-811.86	1409	503.97	-810.78	1406.5	187.31	-809.35	1716.9	337.4	-674.33	1013.3	443.3	-710.16	999.24	200.07	-907.12	1010.5	403.55	-910.66	1012.7	313.31	-728.59	924.84	529.07	-797.98	904.89	144.41	-765.92	1084.3	502.32	-828.71	1088.9	181.52	-925.11	975	356.1	-660.86	679.12	500.2	-572.54	604.52	442.2	-645.47	590.43	470.02	-593.45	687.81	476.11	-574.98	527.02	439.1	-601.91	515.53	319.94	-615.74	341.77	456.63	-542.57	292.12	433.88	-607.69	266.04	446.75	-555.74	364.21	446.85	-558.25	88.601	424.47	-547.77	109.92	340.5	-621.66	73.321	375.11	-608.92	42.747	345.55	-616.1	41.856	409.95	-453.97	44.739	454.51	-411.43	58.137	348.97	-366.99	82.861	392.4	-881.15	659.8	210.53	-817.37	552.32	183.28	-878	569.54	218.11	-823.18	641.15	168.07	-849.83	484.35	191.75	-791.86	474.83	315.84	-965.6	418.77	191.45	-981.62	309.31	195.59	-1017.9	362.6	201.46	-928.54	366.52	186.88	-1145.3	204.61	228.85	-1123.7	186.84	316.05	-1209.1	231.9	291.4	-1213.9	209.99	327.57	-1235.9	214.3	269.37	-1152.2	74.795	200.24	-1105.2	52.826	303.5	-1074.7	38.968	239.9	-888.62	1455.3	355.7	-921.64	1183.6	343.56
168	0.69583	-646.85	1171.5	343.15	-806.18	1409.6	504.56	-805.32	1406.6	187.87	-803.98	1717.3	337.7	-668.41	1014	444.13	-704.06	999.37	200.97	-901.22	1011	404	-904.67	1012.6	313.73	-722.81	925.72	529.91	-791.47	904.67	145.22	-760.06	1085.1	502.98	-822.57	1088.8	182.11	-919.06	975.12	356.66	-655.13	679.63	501.12	-567.12	604.91	442.87	-639.98	590.94	470.88	-587.78	688.2	476.89	-569.92	527.12	439.56	-596.67	515.9	320.52	-612.2	342.06	457.27	-539.56	291.79	434.13	-604.88	266.28	447.2	-552.02	363.98	447.24	-557.49	88.543	424.55	-546.87	109.78	340.58	-621.2	73.61	375.17	-608.66	42.995	345.6	-615.83	42.102	410.01	-453.51	44.121	454.72	-410.95	56.79	348.83	-366.11	81.02	392.24	-872.7	658.85	210.63	-808.35	552.02	182.45	-868.39	568.44	217.77	-814.9	640.85	167.72	-840.3	484.28	190.53	-781.35	473.96	314.48	-956.18	420.14	190.75	-973.42	310.84	194.32	-1009.1	364.51	200.71	-919.75	367.49	185.63	-1137.9	207.5	227.87	-1116	189.24	315	-1199.6	237.16	290.95	-1204.9	215.7	327.3	-1227.2	220.35	269.23	-1149.5	77.477	200.28	-1102.4	54.324	303.2	-1073.5	38.555	239.49	-883.06	1455.6	356.27	-915.73	1183.9	344.37
169	0.7	-641	1172.2	343.9	-800.51	1410.2	505.12	-799.86	1406.9	188.41	-798.61	1717.7	338	-662.57	1014.7	444.98	-698.02	999.49	201.88	-895.4	1011.5	404.41	-898.75	1012.6	314.12	-717.15	926.59	530.73	-785.03	904.46	146.04	-754.31	1085.8	503.62	-816.48	1088.8	182.68	-913.1	975.27	357.18	-649.53	680.1	502.04	-561.82	605.24	443.54	-634.65	591.42	471.71	-582.23	688.54	477.67	-565	527.19	440.03	-591.48	516.28	321.09	-608.81	342.35	457.84	-536.69	291.46	434.39	-602.23	266.53	447.6	-548.46	363.74	447.63	-556.81	88.503	424.62	-546.05	109.65	340.64	-620.79	73.867	375.22	-608.43	43.221	345.63	-615.6	42.327	410.06	-453.12	43.605	454.92	-410.54	55.57	348.7	-365.34	79.342	392.09	-864.22	657.91	210.68	-799.26	551.77	181.6	-858.74	567.37	217.42	-806.57	640.58	167.36	-830.68	484.25	189.29	-770.75	473.15	313.12	-946.61	421.5	190.02	-965.03	312.37	193.06	-1000	366.41	199.97	-910.81	368.47	184.36	-1130.2	210.37	226.89	-1108.1	191.61	313.97	-1189.7	242.35	290.47	-1195.6	221.33	326.99	-1218.2	226.37	269.05	-1146.4	80.299	200.3	-1099.3	55.934	302.87	-1071.9	38.152	239.06	-877.5	1456	356.83	-909.86	1184.2	345.15
170	0.70417	-635.19	1172.9	344.64	-794.82	1410.8	505.67	-794.4	1407.2	188.95	-793.24	1718.1	338.3	-656.81	1015.5	445.85	-692.04	999.62	202.8	-889.65	1012	404.79	-892.92	1012.5	314.48	-711.59	927.42	531.52	-778.64	904.27	146.87	-748.65	1086.5	504.23	-810.44	1088.7	183.23	-907.23	975.44	357.67	-644.08	680.54	502.95	-556.66	605.52	444.2	-629.46	591.87	472.51	-576.8	688.82	478.45	-560.22	527.22	440.5	-586.37	516.66	321.63	-605.58	342.63	458.35	-533.95	291.14	434.65	-599.72	266.77	447.93	-545.05	363.49	448.01	-556.19	88.478	424.66	-545.3	109.54	340.68	-620.42	74.093	375.25	-608.22	43.425	345.66	-615.39	42.533	410.11	-452.79	43.179	455.11	-410.19	54.469	348.57	-364.65	77.815	391.94	-855.72	656.98	210.7	-790.11	551.56	180.75	-849.08	566.34	217.06	-798.21	640.35	167	-820.98	484.27	188.04	-760.07	472.42	311.76	-936.9	422.86	189.29	-956.46	313.9	191.81	-990.87	368.28	199.23	-901.71	369.46	183.1	-1122.2	213.21	225.91	-1099.9	193.94	312.99	-1179.6	247.45	289.96	-1186	226.86	326.63	-1208.8	232.33	268.8	-1143	83.25	200.29	-1096	57.647	302.53	-1070.1	37.77	238.62	-871.94	1456.3	357.38	-904.02	1184.5	345.9
171	0.70833	-629.43	1173.7	345.35	-789.13	1411.5	506.2	-788.94	1407.5	189.47	-787.87	1718.6	338.6	-651.13	1016.3	446.74	-686.11	999.75	203.73	-883.98	1012.4	405.14	-887.16	1012.5	314.83	-706.11	928.21	532.29	-772.33	904.1	147.71	-743.08	1087.2	504.82	-804.46	1088.6	183.76	-901.43	975.64	358.14	-638.77	680.94	503.82	-551.65	605.74	444.83	-624.44	592.28	473.25	-571.51	689.04	479.22	-555.6	527.23	440.97	-581.36	517.03	322.15	-602.51	342.9	458.77	-531.36	290.81	434.91	-597.35	267.01	448.19	-541.8	363.24	448.38	-555.63	88.465	424.68	-544.62	109.44	340.7	-620.09	74.293	375.27	-608.03	43.608	345.67	-615.2	42.724	410.14	-452.51	42.834	455.28	-409.89	53.474	348.43	-364.05	76.428	391.79	-847.21	656.08	210.69	-780.91	551.4	179.9	-839.42	565.36	216.69	-789.83	640.16	166.62	-811.21	484.34	186.79	-749.34	471.78	310.42	-927.07	424.21	188.55	-947.72	315.42	190.58	-981.55	370.12	198.5	-892.47	370.47	181.84	-1113.9	216.02	224.94	-1091.5	196.24	312.04	-1169.1	252.44	289.41	-1176.1	232.26	326.23	-1199	238.19	268.51	-1139.2	86.311	200.25	-1092.4	59.453	302.15	-1068	37.425	238.15	-866.38	1456.7	357.93	-898.21	1184.9	346.62
172	0.7125	-623.72	1174.4	346.04	-783.43	1412.2	506.72	-783.49	1407.8	189.99	-782.5	1719	338.9	-645.51	1017.1	447.64	-680.24	999.88	204.67	-878.38	1013	405.48	-881.48	1012.6	315.16	-700.72	928.97	533.04	-766.1	903.96	148.55	-737.61	1088	505.38	-798.54	1088.5	184.27	-895.72	975.86	358.6	-633.61	681.3	504.67	-546.79	605.9	445.44	-619.59	592.66	473.94	-566.36	689.18	479.96	-551.14	527.21	441.43	-576.48	517.4	322.62	-599.6	343.16	459.12	-528.9	290.49	435.16	-595.12	267.23	448.38	-538.69	362.98	448.73	-555.12	88.463	424.68	-543.99	109.33	340.69	-619.8	74.47	375.27	-607.87	43.77	345.67	-615.03	42.903	410.17	-452.28	42.557	455.42	-409.65	52.575	348.29	-363.53	75.17	391.65	-838.7	655.22	210.66	-771.67	551.3	179.04	-829.77	564.45	216.31	-781.42	640.02	166.24	-801.38	484.47	185.53	-738.58	471.25	309.09	-917.14	425.55	187.8	-938.82	316.95	189.38	-972.09	371.93	197.78	-883.1	371.49	180.59	-1105.3	218.79	223.99	-1082.9	198.5	311.15	-1158.3	257.28	288.84	-1165.9	237.5	325.78	-1188.9	243.92	268.15	-1134.9	89.46	200.16	-1088.4	61.337	301.75	-1065.5	37.134	237.66	-860.83	1457.2	358.47	-892.44	1185.4	347.32
173	0.71667	-618.06	1175.1	346.71	-777.72	1412.9	507.21	-778.05	1408.2	190.49	-777.14	1719.5	339.2	-639.96	1018	448.55	-674.43	1000	205.61	-872.84	1013.5	405.82	-875.87	1012.6	315.5	-695.39	929.69	533.78	-759.95	903.85	149.41	-732.22	1088.7	505.94	-792.7	1088.4	184.77	-890.07	976.09	359.05	-628.59	681.61	505.47	-542.07	605.98	446.02	-614.9	592.99	474.57	-561.33	689.26	480.68	-546.83	527.15	441.87	-571.76	517.75	323.06	-596.84	343.41	459.38	-526.57	290.16	435.4	-593.02	267.45	448.5	-535.74	362.72	449.06	-554.66	88.47	424.66	-543.42	109.24	340.65	-619.53	74.628	375.26	-607.71	43.914	345.67	-614.88	43.071	410.19	-452.08	42.34	455.54	-409.44	51.761	348.14	-363.07	74.028	391.5	-830.19	654.4	210.6	-762.4	551.27	178.2	-820.14	563.6	215.93	-772.99	639.93	165.87	-791.5	484.67	184.29	-727.79	470.82	307.79	-907.1	426.88	187.05	-929.77	318.46	188.21	-962.5	373.72	197.08	-873.61	372.53	179.36	-1096.5	221.51	223.08	-1074.1	200.72	310.31	-1147.3	261.96	288.26	-1155.4	242.56	325.29	-1178.6	249.49	267.75	-1130.2	92.674	200.02	-1084.1	63.284	301.32	-1062.6	36.913	237.16	-855.29	1457.6	359	-886.71	1185.8	347.99
174	0.72083	-612.44	1175.9	347.36	-772	1413.6	507.69	-772.61	1408.7	190.98	-771.78	1720	339.5	-634.48	1018.8	449.48	-668.68	1000.2	206.55	-867.36	1014	406.15	-870.33	1012.7	315.84	-690.13	930.37	534.51	-753.89	903.78	150.27	-726.9	1089.4	506.48	-786.92	1088.3	185.27	-884.5	976.34	359.5	-623.73	681.88	506.22	-537.51	606.01	446.57	-610.39	593.29	475.13	-556.45	689.27	481.35	-542.67	527.06	442.29	-567.21	518.07	323.46	-594.23	343.64	459.56	-524.36	289.84	435.63	-591.05	267.66	448.56	-532.94	362.45	449.36	-554.24	88.485	424.62	-542.89	109.14	340.6	-619.29	74.77	375.23	-607.57	44.04	345.65	-614.74	43.232	410.2	-451.93	42.173	455.64	-409.27	51.023	347.99	-362.66	72.99	391.35	-821.69	653.64	210.53	-753.09	551.32	177.36	-810.54	562.83	215.54	-764.56	639.91	165.5	-781.57	484.94	183.06	-717	470.52	306.53	-896.98	428.2	186.3	-920.57	319.97	187.09	-952.81	375.47	196.39	-864.01	373.58	178.15	-1087.4	224.18	222.2	-1065.2	202.9	309.54	-1136.2	266.45	287.66	-1144.8	247.4	324.77	-1167.9	254.86	267.29	-1124.9	95.923	199.82	-1079.4	65.277	300.85	-1059.2	36.783	236.64	-849.75	1458.1	359.52	-881.02	1186.3	348.63
175	0.725	-606.88	1176.6	347.98	-766.28	1414.3	508.14	-767.19	1409.1	191.46	-766.43	1720.6	339.79	-629.05	1019.6	450.4	-663	1000.4	207.48	-861.93	1014.4	406.5	-864.86	1012.8	316.19	-684.91	931.02	535.23	-747.92	903.75	151.13	-721.64	1090.2	507.02	-781.22	1088.3	185.76	-878.99	976.6	359.96	-619.01	682.12	506.92	-533.11	605.96	447.07	-606.04	593.54	475.63	-551.69	689.22	481.99	-538.66	526.94	442.69	-562.86	518.37	323.81	-591.77	343.86	459.66	-522.28	289.52	435.85	-589.2	267.86	448.55	-530.28	362.17	449.63	-553.85	88.507	424.56	-542.4	109.04	340.52	-619.07	74.898	375.2	-607.45	44.151	345.63	-614.62	43.387	410.2	-451.8	42.05	455.7	-409.12	50.352	347.83	-362.31	72.046	391.2	-813.2	652.93	210.43	-743.77	551.44	176.54	-800.96	562.15	215.14	-756.11	639.95	165.14	-771.6	485.29	181.85	-706.22	470.35	305.31	-886.79	429.51	185.55	-911.24	321.46	186.01	-943	377.18	195.73	-854.3	374.65	176.98	-1078.1	226.79	221.36	-1056.1	205.04	308.82	-1124.9	270.72	287.06	-1134.1	252	324.23	-1157.1	260	266.79	-1119.2	99.177	199.55	-1074.3	67.296	300.35	-1055.3	36.761	236.09	-844.21	1458.6	360.04	-875.38	1186.8	349.26
